<svg id="visual" viewBox="0 0 900 600" width="900" height="600" xmlns="http://www.w3.org/2000/svg" xmlns:xlink="http://www.w3.org/1999/xlink" version="1.1"><rect x="0" y="0" width="900" height="600" fill="#121212"></rect><defs><linearGradient id="grad1_0" x1="33.3%" y1="0%" x2="100%" y2="100%"><stop offset="20%" stop-color="#121212" stop-opacity="1"></stop><stop offset="80%" stop-color="#121212" stop-opacity="1"></stop></linearGradient></defs><defs><linearGradient id="grad2_0" x1="0%" y1="0%" x2="66.7%" y2="100%"><stop offset="20%" stop-color="#121212" stop-opacity="1"></stop><stop offset="80%" stop-color="#121212" stop-opacity="1"></stop></linearGradient></defs><g transform="translate(900, 0)"><path d="M0 486.7C-53.9 459.9 -107.9 433 -171.8 414.8C-235.8 396.6 -309.7 387.1 -344.2 344.2C-378.6 301.2 -373.6 224.8 -390.8 161.9C-408 98.9 -447.4 49.5 -486.7 0L0 0Z" fill="#800080"></path></g><g transform="translate(0, 600)"><path d="M0 -486.7C58.2 -466.6 116.5 -446.4 176.4 -425.9C236.3 -405.4 297.9 -384.6 344.2 -344.2C390.4 -303.8 421.3 -243.9 442.5 -183.3C463.7 -122.7 475.2 -61.3 486.7 0L0 0Z" fill="#800080"></path></g></svg>