<svg id="visual" viewBox="0 0 900 600" width="900" height="600" xmlns="http://www.w3.org/2000/svg" xmlns:xlink="http://www.w3.org/1999/xlink" version="1.1"><rect x="0" y="0" width="900" height="600" fill="#71797E"></rect><defs><linearGradient id="grad1_0" x1="33.3%" y1="0%" x2="100%" y2="100%"><stop offset="20%" stop-color="#71797e" stop-opacity="1"></stop><stop offset="80%" stop-color="#71797e" stop-opacity="1"></stop></linearGradient></defs><defs><linearGradient id="grad2_0" x1="0%" y1="0%" x2="66.7%" y2="100%"><stop offset="20%" stop-color="#71797e" stop-opacity="1"></stop><stop offset="80%" stop-color="#71797e" stop-opacity="1"></stop></linearGradient></defs><g transform="translate(900, 0)"><path d="M0 351.5C-31.3 333 -62.7 314.5 -99.8 307.2C-137 299.9 -179.9 303.8 -206.6 284.4C-233.3 265 -243.7 222.3 -260.5 189.3C-277.3 156.2 -300.5 132.8 -316.7 102.9C-332.9 73 -342.2 36.5 -351.5 0L0 0Z" fill="#848884"></path></g><g transform="translate(0, 600)"><path d="M0 -351.5C37.7 -349.8 75.4 -348 108.6 -334.3C141.9 -320.7 170.7 -295.2 196.3 -270.2C222 -245.2 244.4 -220.6 267 -194C289.5 -167.3 312.1 -138.7 326.2 -106C340.3 -73.3 345.9 -36.7 351.5 0L0 0Z" fill="#848884"></path></g></svg>