<svg id="visual" viewBox="0 0 900 600" width="900" height="600" xmlns="http://www.w3.org/2000/svg" xmlns:xlink="http://www.w3.org/1999/xlink" version="1.1"><path d="M0 61L30 66C60 71 120 81 180 97C240 113 300 135 360 162C420 189 480 221 540 235C600 249 660 245 720 210C780 175 840 109 870 76L900 43L900 0L870 0C840 0 780 0 720 0C660 0 600 0 540 0C480 0 420 0 360 0C300 0 240 0 180 0C120 0 60 0 30 0L0 0Z" fill="#596974"></path><path d="M0 133L30 150C60 167 120 201 180 228C240 255 300 275 360 320C420 365 480 435 540 436C600 437 660 369 720 355C780 341 840 381 870 401L900 421L900 41L870 74C840 107 780 173 720 208C660 243 600 247 540 233C480 219 420 187 360 160C300 133 240 111 180 95C120 79 60 69 30 64L0 59Z" fill="#36454f"></path><path d="M0 601L30 601C60 601 120 601 180 601C240 601 300 601 360 601C420 601 480 601 540 601C600 601 660 601 720 601C780 601 840 601 870 601L900 601L900 419L870 399C840 379 780 339 720 353C660 367 600 435 540 434C480 433 420 363 360 318C300 273 240 253 180 226C120 199 60 165 30 148L0 131Z" fill="#29333a"></path></svg>