<svg id="visual" viewBox="0 0 900 600" width="900" height="600" xmlns="http://www.w3.org/2000/svg" xmlns:xlink="http://www.w3.org/1999/xlink" version="1.1"><path d="M0 49L13.7 51C27.3 53 54.7 57 82 55C109.3 53 136.7 45 163.8 51C191 57 218 77 245.2 84C272.3 91 299.7 85 327 78C354.3 71 381.7 63 409 65C436.3 67 463.7 79 491 82C518.3 85 545.7 79 573 81C600.3 83 627.7 93 654.8 90C682 87 709 71 736.2 71C763.3 71 790.7 87 818 91C845.3 95 872.7 87 886.3 83L900 79L900 0L886.3 0C872.7 0 845.3 0 818 0C790.7 0 763.3 0 736.2 0C709 0 682 0 654.8 0C627.7 0 600.3 0 573 0C545.7 0 518.3 0 491 0C463.7 0 436.3 0 409 0C381.7 0 354.3 0 327 0C299.7 0 272.3 0 245.2 0C218 0 191 0 163.8 0C136.7 0 109.3 0 82 0C54.7 0 27.3 0 13.7 0L0 0Z" fill="#a7a9ac"></path><path d="M0 103L13.7 117C27.3 131 54.7 159 82 162C109.3 165 136.7 143 163.8 144C191 145 218 169 245.2 181C272.3 193 299.7 193 327 180C354.3 167 381.7 141 409 142C436.3 143 463.7 171 491 176C518.3 181 545.7 163 573 159C600.3 155 627.7 165 654.8 168C682 171 709 167 736.2 169C763.3 171 790.7 179 818 179C845.3 179 872.7 171 886.3 167L900 163L900 77L886.3 81C872.7 85 845.3 93 818 89C790.7 85 763.3 69 736.2 69C709 69 682 85 654.8 88C627.7 91 600.3 81 573 79C545.7 77 518.3 83 491 80C463.7 77 436.3 65 409 63C381.7 61 354.3 69 327 76C299.7 83 272.3 89 245.2 82C218 75 191 55 163.8 49C136.7 43 109.3 51 82 53C54.7 55 27.3 51 13.7 49L0 47Z" fill="#94979a"></path><path d="M0 163L13.7 188C27.3 213 54.7 263 82 284C109.3 305 136.7 297 163.8 288C191 279 218 269 245.2 267C272.3 265 299.7 271 327 259C354.3 247 381.7 217 409 226C436.3 235 463.7 283 491 291C518.3 299 545.7 267 573 257C600.3 247 627.7 259 654.8 264C682 269 709 267 736.2 265C763.3 263 790.7 261 818 256C845.3 251 872.7 243 886.3 239L900 235L900 161L886.3 165C872.7 169 845.3 177 818 177C790.7 177 763.3 169 736.2 167C709 165 682 169 654.8 166C627.7 163 600.3 153 573 157C545.7 161 518.3 179 491 174C463.7 169 436.3 141 409 140C381.7 139 354.3 165 327 178C299.7 191 272.3 191 245.2 179C218 167 191 143 163.8 142C136.7 141 109.3 163 82 160C54.7 157 27.3 129 13.7 115L0 101Z" fill="#818589"></path><path d="M0 295L13.7 315C27.3 335 54.7 375 82 412C109.3 449 136.7 483 163.8 489C191 495 218 473 245.2 448C272.3 423 299.7 395 327 381C354.3 367 381.7 367 409 391C436.3 415 463.7 463 491 463C518.3 463 545.7 415 573 388C600.3 361 627.7 355 654.8 362C682 369 709 389 736.2 412C763.3 435 790.7 461 818 463C845.3 465 872.7 443 886.3 432L900 421L900 233L886.3 237C872.7 241 845.3 249 818 254C790.7 259 763.3 261 736.2 263C709 265 682 267 654.8 262C627.7 257 600.3 245 573 255C545.7 265 518.3 297 491 289C463.7 281 436.3 233 409 224C381.7 215 354.3 245 327 257C299.7 269 272.3 263 245.2 265C218 267 191 277 163.8 286C136.7 295 109.3 303 82 282C54.7 261 27.3 211 13.7 186L0 161Z" fill="#6f7376"></path><path d="M0 601L13.7 601C27.3 601 54.7 601 82 601C109.3 601 136.7 601 163.8 601C191 601 218 601 245.2 601C272.3 601 299.7 601 327 601C354.3 601 381.7 601 409 601C436.3 601 463.7 601 491 601C518.3 601 545.7 601 573 601C600.3 601 627.7 601 654.8 601C682 601 709 601 736.2 601C763.3 601 790.7 601 818 601C845.3 601 872.7 601 886.3 601L900 601L900 419L886.3 430C872.7 441 845.3 463 818 461C790.7 459 763.3 433 736.2 410C709 387 682 367 654.8 360C627.7 353 600.3 359 573 386C545.7 413 518.3 461 491 461C463.7 461 436.3 413 409 389C381.7 365 354.3 365 327 379C299.7 393 272.3 421 245.2 446C218 471 191 493 163.8 487C136.7 481 109.3 447 82 410C54.7 373 27.3 333 13.7 313L0 293Z" fill="#5e6164"></path></svg>