<svg xmlns="http://www.w3.org/2000/svg" version="1.1" xmlns:xlink="http://www.w3.org/1999/xlink" xmlns:svgjs="http://svgjs.dev/svgjs" width="1440" height="560" preserveAspectRatio="none" viewBox="0 0 1440 560"><g mask="url(&quot;#SvgjsMask1148&quot;)" fill="none"><path d="M 0,56 C 57.6,97.2 172.8,265 288,262 C 403.2,259 460.8,48 576,41 C 691.2,34 748.8,213.6 864,227 C 979.2,240.4 1036.8,120.2 1152,108 C 1267.2,95.8 1382.4,154.4 1440,166L1440 560L0 560z" fill="rgba(54, 69, 79, 1)"></path><path d="M 0,359 C 72,371.8 216,415.6 360,423 C 504,430.4 576,369.8 720,396 C 864,422.2 936,575 1080,554 C 1224,533 1368,343.6 1440,291L1440 560L0 560z" fill="rgba(41, 51, 58, 1)"></path></g><defs><mask id="SvgjsMask1148"><rect width="1440" height="560" fill="#ffffff"></rect></mask></defs></svg>