<svg xmlns="http://www.w3.org/2000/svg" version="1.1" xmlns:xlink="http://www.w3.org/1999/xlink" xmlns:svgjs="http://svgjs.dev/svgjs" width="1440" height="560" preserveAspectRatio="none" viewBox="0 0 1440 560"><g mask="url(&quot;#SvgjsMask1004&quot;)" fill="none"><path d="M 0,55 C 57.6,90 172.8,225 288,230 C 403.2,235 460.8,95.2 576,80 C 691.2,64.8 748.8,153 864,154 C 979.2,155 1036.8,68.6 1152,85 C 1267.2,101.4 1382.4,205.8 1440,236L1440 560L0 560z" fill="rgba(89, 105, 116, 1)"></path><path d="M 0,497 C 96,474.4 288,388 480,384 C 672,380 768,477.6 960,477 C 1152,476.4 1344,400.2 1440,381L1440 560L0 560z" fill="rgba(89, 105, 116, 1)"></path></g><defs><mask id="SvgjsMask1004"><rect width="1440" height="560" fill="#ffffff"></rect></mask></defs></svg>